<svg width="168" height="51" viewBox="0 0 168 51" fill="none" xmlns="http://www.w3.org/2000/svg">
<path d="M116.436 0L154.817 50.1326L129.618 0H116.436Z" fill="#00183A"/>
<path d="M142.218 16.457L129.618 50.1325H116.436L142.218 16.457Z" fill="url(#paint0_linear_1109_3488)"/>
<path d="M154.817 0L142.218 33.6755L167.999 0H154.817Z" fill="url(#paint1_linear_1109_3488)"/>
<path d="M146.545 22.1091L142.218 16.4571L129.618 0L140.371 21.3923L144.065 28.7403L154.818 50.1326H168L146.545 22.1091Z" fill="url(#paint2_linear_1109_3488)"/>
<path d="M142.218 16.4571L146.545 22.1106L154.817 0L142.218 16.4571Z" fill="#8F1838"/>
<path d="M129.618 50.1332L142.218 33.6761L144.064 28.7409L140.371 21.3936L129.618 50.1332Z" fill="url(#paint3_linear_1109_3488)"/>
<mask id="mask0_1109_3488" style="mask-type:luminance" maskUnits="userSpaceOnUse" x="0" y="12" width="117" height="26">
<path d="M116.436 12.8003H0V37.5151H116.436V12.8003Z" fill="white"/>
</mask>
<g mask="url(#mask0_1109_3488)">
<path d="M1.8573 29.6251H4.05922C4.08231 30.345 4.31113 31.0433 4.71879 31.6381C5.11393 32.1801 5.65525 32.5994 6.2799 32.8472C6.98594 33.1271 7.74064 33.2648 8.50038 33.2523C9.22527 33.2682 9.94612 33.1405 10.6211 32.8766C11.1752 32.6623 11.6599 32.301 12.0227 31.8317C12.3542 31.3878 12.5294 30.8471 12.5211 30.2937C12.5366 29.8014 12.3777 29.3194 12.0721 28.9323C11.7156 28.5224 11.2682 28.2008 10.7654 27.993C10.0873 27.6988 9.38519 27.4631 8.66671 27.2885L6.19705 26.6312C4.28471 26.1382 2.77485 25.3672 1.66747 24.3182C0.560082 23.2691 0.00989351 21.8562 0.0169014 20.0795C-0.0199023 18.7247 0.365087 17.3918 1.119 16.2638C1.88847 15.1532 2.94717 14.2727 4.18124 13.7168C5.57109 13.0868 7.08443 12.7737 8.61106 12.8001C10.2945 12.8001 11.7656 13.1054 13.0246 13.716C14.224 14.2749 15.2426 15.1572 15.965 16.263C16.6793 17.3951 17.0558 18.7063 17.0504 20.0436H12.4541C12.4315 19.6162 12.3181 19.1984 12.1214 18.8179C11.9248 18.4374 11.6493 18.1029 11.3132 17.8364C10.6416 17.3124 9.72978 17.0505 8.57788 17.0505C7.90046 17.0314 7.22618 17.1492 6.59567 17.3968C6.10138 17.5927 5.67314 17.9246 5.36084 18.3538C5.07681 18.7598 4.92767 19.2443 4.93439 19.7392C4.91051 20.1319 5.00067 20.5232 5.19409 20.8662C5.39045 21.1959 5.65714 21.4785 5.97527 21.694C6.3338 21.9387 6.72048 22.1397 7.12703 22.2927C7.58186 22.467 8.04807 22.6101 8.52243 22.7212L10.5603 23.2378C11.4989 23.4552 12.412 23.77 13.2847 24.1773C14.0729 24.5427 14.798 25.0301 15.4333 25.6215C16.0375 26.1914 16.518 26.8787 16.8451 27.641C17.1951 28.4858 17.3703 29.3923 17.3604 30.3062C17.3877 31.6553 17.0205 32.9831 16.3037 34.1277C15.5665 35.2373 14.5187 36.1069 13.2903 36.6287C11.9797 37.2195 10.4015 37.515 8.55582 37.5152C6.7247 37.5152 5.13178 37.2178 3.77705 36.6229C2.47926 36.076 1.37592 35.1537 0.609687 33.9753C0.442765 33.7173 0.294138 33.448 0.164892 33.1693C0.106355 33.0431 0.0513913 32.9141 0 32.7825L1.8573 29.6251Z" fill="white"/>
<path d="M19.707 17.3206V13.1292H39.3854L37.044 17.3208H31.3917V37.1748H26.651V17.3206H19.707Z" fill="white"/>
<path d="M43.8747 13.1292H46.2106V28.3103C46.1945 29.1589 46.3905 29.998 46.7809 30.7523C47.1488 31.4519 47.7073 32.0339 48.3923 32.4313C49.1385 32.832 49.9729 33.0418 50.8205 33.0418C51.6682 33.0418 52.5026 32.832 53.2488 32.4313C53.9312 32.0325 54.4876 31.4508 54.8546 30.7523C55.245 29.998 55.441 29.1589 55.4251 28.3103V13.1292H60.2206V28.7454C60.2206 30.4988 59.8274 32.0329 59.041 33.3478C58.2564 34.6613 57.1139 35.7259 55.7463 36.4181C54.3359 37.15 52.6931 37.516 50.8178 37.516C48.9353 37.516 47.2889 37.15 45.8785 36.4181C44.5113 35.7266 43.3702 34.661 42.5889 33.3463C41.8057 32.0318 41.4141 30.4976 41.4141 28.7439V17.4415L43.8747 13.1292Z" fill="white"/>
<path d="M72.2027 37.1748H66.3131L64.1621 33.4511V13.1292H72.269C74.55 13.1292 76.514 13.6084 78.1608 14.567C79.814 15.5331 81.139 16.9705 81.9651 18.6939C82.8547 20.4865 83.2995 22.6312 83.2997 25.128C83.2997 27.633 82.8548 29.7855 81.9651 31.5856C81.138 33.3182 79.8065 34.7624 78.1441 35.7302C76.4864 36.693 74.5058 37.1744 72.2024 37.1744M68.9574 32.8185H72.0029C73.4206 32.8185 74.6148 32.5504 75.5856 32.0143C76.5797 31.4522 77.3528 30.5704 77.7785 29.5134C78.2694 28.3824 78.5149 26.9206 78.5149 25.128C78.5149 23.3513 78.2694 21.8994 77.7785 20.7721C77.3532 19.7196 76.5821 18.842 75.5912 18.2831C74.6238 17.7508 73.4314 17.4847 72.0141 17.4847H68.9574V32.8185Z" fill="white"/>
<path d="M91.6396 13.1292V37.1748H89.0135L86.8438 33.4511V13.1292H91.6396Z" fill="white"/>
<path d="M116.436 25.152C116.436 27.7743 115.969 30.005 115.034 31.8443C114.194 33.5811 112.872 35.0417 111.224 36.0534C109.578 37.0042 107.708 37.5045 105.805 37.5034C103.902 37.5024 102.033 37.0002 100.387 36.0477C98.7441 35.032 97.4261 33.5696 96.5888 31.8326C95.6585 29.9933 95.1934 27.7664 95.1934 25.152C95.1934 22.5298 95.6585 20.299 96.5888 18.4596C97.4253 16.7236 98.7436 15.2629 100.387 14.2505C102.034 13.3007 103.903 12.8005 105.806 12.8005C107.709 12.8005 109.578 13.3007 111.224 14.2505C112.871 15.2623 114.193 16.7229 115.034 18.4596C115.969 20.299 116.436 22.5298 116.436 25.152ZM111.574 25.152C111.574 23.454 111.336 22.0216 110.86 20.8548C110.384 19.688 109.714 18.8035 108.849 18.2014C107.948 17.6116 106.893 17.2974 105.815 17.2974C104.737 17.2974 103.682 17.6116 102.78 18.2014C101.865 18.8713 101.166 19.7937 100.77 20.8548C100.294 22.0212 100.056 23.4536 100.056 25.152C100.056 26.8504 100.294 28.2828 100.77 29.4492C101.247 30.6156 101.917 31.5001 102.78 32.1027C103.682 32.6925 104.737 33.0068 105.815 33.0068C106.893 33.0068 107.948 32.6925 108.849 32.1027C109.713 31.5002 110.383 30.6157 110.86 29.4492C111.336 28.2826 111.574 26.8502 111.574 25.152Z" fill="white"/>
</g>
<defs>
<linearGradient id="paint0_linear_1109_3488" x1="116.436" y1="33.2948" x2="142.218" y2="33.2948" gradientUnits="userSpaceOnUse">
<stop stop-color="#02CEF2"/>
<stop offset="0.993" stop-color="#00183A"/>
<stop offset="1" stop-color="#00183A"/>
</linearGradient>
<linearGradient id="paint1_linear_1109_3488" x1="142.218" y1="16.8377" x2="167.999" y2="16.8377" gradientUnits="userSpaceOnUse">
<stop stop-color="#FF3358"/>
<stop offset="0.024" stop-color="#FF3358"/>
<stop offset="1" stop-color="#8F1838"/>
</linearGradient>
<linearGradient id="paint2_linear_1109_3488" x1="129.618" y1="25.0663" x2="168" y2="25.0663" gradientUnits="userSpaceOnUse">
<stop stop-color="#FF3358"/>
<stop offset="0.025" stop-color="#FF3358"/>
<stop offset="0.981" stop-color="#FDB713"/>
<stop offset="1" stop-color="#FDB713"/>
</linearGradient>
<linearGradient id="paint3_linear_1109_3488" x1="129.618" y1="35.7634" x2="144.064" y2="35.7634" gradientUnits="userSpaceOnUse">
<stop stop-color="#00EEFA"/>
<stop offset="0.025" stop-color="#00EEFA"/>
<stop offset="0.981" stop-color="#BDFF05"/>
<stop offset="1" stop-color="#BDFF05"/>
</linearGradient>
</defs>
</svg>
